<svg xmlns="http://www.w3.org/2000/svg" xmlns:xlink="http://www.w3.org/1999/xlink" width="500" zoomAndPan="magnify" viewBox="0 0 375 374.999991" height="500" preserveAspectRatio="xMidYMid meet" version="1.0"><defs><g/><clipPath id="49b167e894"><path d="M 128 93.5625 L 132 93.5625 L 132 97 L 128 97 Z M 128 93.5625 " clip-rule="nonzero"/></clipPath><clipPath id="c37543fc17"><path d="M 143 102 L 146.929688 102 L 146.929688 106 L 143 106 Z M 143 102 " clip-rule="nonzero"/></clipPath><clipPath id="7e9c7fba8d"><path d="M 113.179688 102 L 117 102 L 117 106 L 113.179688 106 Z M 113.179688 102 " clip-rule="nonzero"/></clipPath><clipPath id="6ffc0a2738"><path d="M 115 97 L 145 97 L 145 120.5625 L 115 120.5625 Z M 115 97 " clip-rule="nonzero"/></clipPath></defs><rect x="-37.5" width="450" fill="#ffffff" y="-37.499999" height="449.999989" fill-opacity="1"/><rect x="-37.5" width="450" fill="#111111" y="-37.499999" height="449.999989" fill-opacity="1"/><g fill="#f4f1ec" fill-opacity="1"><g transform="translate(201.479595, 148.562304)"><g><path d="M -66.765625 -2.234375 C -49.898438 -2.128906 -36.15625 3.253906 -25.53125 13.921875 C -14.914062 24.597656 -9.609375 38.660156 -9.609375 56.109375 C -9.609375 73.566406 -14.914062 87.628906 -25.53125 98.296875 C -36.15625 108.972656 -50.21875 114.3125 -67.71875 114.3125 C -82.03125 114.3125 -94.679688 110.6875 -105.671875 103.4375 L -108.875 80.859375 L -107.4375 80.859375 C -105.082031 90.035156 -100.328125 97.101562 -93.171875 102.0625 C -86.023438 107.03125 -77.539062 109.515625 -67.71875 109.515625 C -53.738281 109.515625 -42.554688 104.65625 -34.171875 94.9375 C -25.796875 85.226562 -21.609375 72.367188 -21.609375 56.359375 C -21.609375 40.347656 -25.742188 27.457031 -34.015625 17.6875 C -42.296875 7.925781 -53.210938 2.882812 -66.765625 2.5625 C -78.722656 2.5625 -88.703125 5.816406 -96.703125 12.328125 C -105.347656 19.367188 -110.578125 30.84375 -112.390625 46.75 L -113.671875 46.75 L -111.75 21.609375 C -102.039062 5.710938 -87.046875 -2.234375 -66.765625 -2.234375 Z M -66.765625 -2.234375 "/></g></g></g><g fill="#000000" fill-opacity="1"><g transform="translate(103.169266, 237.372275)"><g><path d="M 42.589844 -10.207031 L 53.277344 -10.207031 L 53.277344 8.605469 L 1 8.605469 L 1 -10.207031 L 11.6875 -10.207031 C 12.085938 -10.207031 12.433594 -10.355469 12.726562 -10.648438 C 13.113281 -11.035156 13.316406 -11.492188 13.335938 -12.019531 L 21.933594 -11.6875 L 13.328125 -11.6875 L 13.328125 -100.550781 L 21.933594 -100.550781 L 13.335938 -100.21875 C 13.316406 -100.703125 13.140625 -101.105469 12.8125 -101.425781 C 12.507812 -101.722656 12.132812 -101.871094 11.6875 -101.871094 L 1 -101.871094 L 1 -120.683594 L 53.277344 -120.683594 L 53.277344 -101.871094 L 42.589844 -101.871094 C 42.144531 -101.871094 41.769531 -101.722656 41.464844 -101.425781 C 41.136719 -101.105469 40.960938 -100.703125 40.941406 -100.21875 L 32.34375 -100.550781 L 40.949219 -100.550781 L 40.949219 -11.6875 C 40.949219 -11.335938 41.09375 -11.015625 41.386719 -10.730469 C 41.746094 -10.382812 42.144531 -10.207031 42.589844 -10.207031 Z M 42.589844 7.003906 C 37.480469 7.003906 33.078125 5.203125 29.378906 1.601562 C 25.617188 -2.0625 23.734375 -6.492188 23.734375 -11.6875 L 23.734375 -100.714844 L 23.742188 -100.878906 C 23.9375 -105.945312 25.84375 -110.242188 29.460938 -113.761719 C 33.109375 -117.308594 37.484375 -119.082031 42.589844 -119.082031 L 44.671875 -119.082031 L 44.671875 -110.476562 L 36.066406 -110.476562 L 36.066406 -112.078125 L 44.671875 -112.078125 L 44.671875 -103.472656 L 9.605469 -103.472656 L 9.605469 -112.078125 L 18.210938 -112.078125 L 18.210938 -110.476562 L 9.605469 -110.476562 L 9.605469 -119.082031 L 11.6875 -119.082031 C 16.792969 -119.082031 21.167969 -117.308594 24.816406 -113.761719 C 28.433594 -110.242188 30.339844 -105.945312 30.535156 -100.878906 L 30.542969 -100.714844 L 30.542969 -11.523438 L 30.535156 -11.355469 C 30.339844 -6.335938 28.464844 -2.042969 24.898438 1.523438 C 21.242188 5.175781 16.839844 7.003906 11.6875 7.003906 L 9.605469 7.003906 L 9.605469 -1.601562 L 18.210938 -1.601562 L 18.210938 0 L 9.605469 0 L 9.605469 -8.605469 L 44.671875 -8.605469 L 44.671875 0 L 36.066406 0 L 36.066406 -1.601562 L 44.671875 -1.601562 L 44.671875 7.003906 Z M 106.953125 8.605469 L 100.070312 8.605469 C 86.511719 8.605469 76.3125 4.542969 69.46875 -3.582031 L 26.375 -55.613281 L 68.523438 -108.476562 L 68.535156 -108.488281 C 68.472656 -108.386719 68.410156 -108.269531 68.347656 -108.128906 C 68.066406 -107.496094 67.925781 -106.785156 67.925781 -105.992188 C 67.925781 -105.492188 68.070312 -104.957031 68.355469 -104.386719 L 76.050781 -108.234375 L 68.457031 -104.183594 C 68.871094 -103.410156 69.484375 -102.8125 70.296875 -102.390625 C 70.761719 -102.148438 71.132812 -102.03125 71.410156 -102.03125 L 61.203125 -102.03125 L 61.203125 -120.683594 L 112.199219 -120.683594 L 112.199219 -102.03125 L 102.949219 -102.03125 C 98.472656 -102.03125 94.847656 -100.480469 92.074219 -97.375 L 54.546875 -53.933594 L 48.03125 -59.5625 L 54.589844 -65.136719 L 98.300781 -13.742188 L 91.742188 -8.164062 L 97.828125 -14.25 C 100.460938 -11.617188 103.554688 -10.269531 107.109375 -10.207031 L 115.558594 -10.050781 L 115.558594 8.605469 Z M 106.953125 -8.605469 L 106.953125 0 L 98.347656 0 L 98.347656 -1.601562 L 106.953125 -1.601562 L 106.796875 7.003906 C 98.609375 6.855469 91.566406 3.828125 85.65625 -2.082031 L 85.410156 -2.324219 L 36.699219 -59.605469 L 79.242188 -108.84375 C 85.433594 -115.777344 93.339844 -119.242188 102.949219 -119.242188 L 103.589844 -119.242188 L 103.589844 -110.636719 L 94.984375 -110.636719 L 94.984375 -112.078125 L 103.589844 -112.078125 L 103.589844 -103.472656 L 69.808594 -103.472656 L 69.808594 -112.078125 L 78.414062 -112.078125 L 78.414062 -110.636719 L 69.808594 -110.636719 L 69.808594 -119.242188 L 71.410156 -119.242188 C 73.925781 -119.242188 76.191406 -118.722656 78.203125 -117.679688 C 80.566406 -116.460938 82.378906 -114.660156 83.644531 -112.285156 L 83.699219 -112.183594 L 83.75 -112.082031 C 84.675781 -110.230469 85.140625 -108.203125 85.140625 -105.992188 C 85.140625 -103.125 84.085938 -100.378906 81.980469 -97.746094 L 44.195312 -50.351562 L 37.464844 -55.71875 L 44.09375 -61.207031 L 82.636719 -14.667969 C 86.039062 -10.628906 91.851562 -8.605469 100.070312 -8.605469 Z M 106.953125 -8.605469 "/></g></g></g><g fill="#f4f1ec" fill-opacity="1"><g transform="translate(103.169266, 237.372275)"><g><path d="M 42.59375 -1.59375 L 44.671875 -1.59375 L 44.671875 0 L 9.609375 0 L 9.609375 -1.59375 L 11.6875 -1.59375 C 14.457031 -1.59375 16.832031 -2.582031 18.8125 -4.5625 C 20.789062 -6.539062 21.832031 -8.914062 21.9375 -11.6875 L 21.9375 -100.546875 C 21.832031 -103.328125 20.789062 -105.675781 18.8125 -107.59375 C 16.832031 -109.507812 14.457031 -110.46875 11.6875 -110.46875 L 9.609375 -110.46875 L 9.609375 -112.078125 L 44.671875 -112.078125 L 44.671875 -110.46875 L 42.59375 -110.46875 C 39.8125 -110.46875 37.429688 -109.507812 35.453125 -107.59375 C 33.484375 -105.675781 32.445312 -103.328125 32.34375 -100.546875 L 32.34375 -11.6875 C 32.34375 -8.914062 33.351562 -6.539062 35.375 -4.5625 C 37.40625 -2.582031 39.8125 -1.59375 42.59375 -1.59375 Z M 106.953125 0 L 100.0625 0 C 89.175781 0 81.171875 -3.039062 76.046875 -9.125 L 37.46875 -55.71875 L 75.25 -103.109375 C 76.101562 -104.179688 76.53125 -105.140625 76.53125 -105.984375 C 76.53125 -106.835938 76.367188 -107.585938 76.046875 -108.234375 C 75.191406 -109.835938 73.644531 -110.640625 71.40625 -110.640625 L 69.8125 -110.640625 L 69.8125 -112.078125 L 103.59375 -112.078125 L 103.59375 -110.640625 L 102.953125 -110.640625 C 95.910156 -110.640625 90.144531 -108.128906 85.65625 -103.109375 L 48.03125 -59.5625 L 91.75 -8.171875 C 96.007812 -3.898438 101.078125 -1.707031 106.953125 -1.59375 Z M 106.953125 0 "/></g></g></g><g fill="#f4f1ec" fill-opacity="1"><g transform="translate(261.680144, 125.940753)"><g><path d="M -11.859375 1.625 C -14.671875 1.625 -17.078125 2.625 -19.078125 4.625 C -21.078125 6.625 -22.132812 9.035156 -22.25 11.859375 L -22.25 101.96875 C -22.132812 104.78125 -21.078125 107.160156 -19.078125 109.109375 C -17.078125 111.054688 -14.671875 112.03125 -11.859375 112.03125 L -9.75 112.03125 L -9.75 113.65625 L -45.296875 113.65625 L -45.296875 112.03125 L -43.1875 112.03125 C -40.375 112.03125 -37.96875 111.054688 -35.96875 109.109375 C -33.96875 107.160156 -32.910156 104.78125 -32.796875 101.96875 L -32.796875 11.859375 C -32.796875 9.035156 -33.820312 6.625 -35.875 4.625 C -37.9375 2.625 -40.375 1.625 -43.1875 1.625 L -45.296875 1.625 L -45.296875 0 L -9.75 0 L -9.75 1.625 Z M -11.859375 1.625 "/></g></g></g><g fill="#d4af37" fill-opacity="1"><g transform="translate(109.420406, 292.012423)"><g><path d="M 1.953125 -12.125 L 0 -12.125 L 0 -13.6875 L 1.765625 -13.6875 C 1.585938 -14.007812 1.441406 -14.351562 1.328125 -14.71875 C 1.222656 -15.082031 1.171875 -15.484375 1.171875 -15.921875 C 1.171875 -17.066406 1.59375 -17.984375 2.4375 -18.671875 C 3.289062 -19.367188 4.429688 -19.71875 5.859375 -19.71875 C 7.921875 -19.71875 9.75 -19.15625 11.34375 -18.03125 C 12.9375 -16.90625 14.316406 -15.40625 15.484375 -13.53125 L 13.640625 -13.53125 C 11.398438 -16.59375 8.925781 -18.125 6.21875 -18.125 C 5.195312 -18.125 4.394531 -17.90625 3.8125 -17.46875 C 3.238281 -17.039062 2.953125 -16.453125 2.953125 -15.703125 C 2.953125 -15.265625 3.019531 -14.878906 3.15625 -14.546875 C 3.289062 -14.222656 3.445312 -13.9375 3.625 -13.6875 L 6 -13.6875 L 6 -12.125 L 3.734375 -12.125 L 3.734375 0 L 1.953125 0 Z M 1.953125 -12.125 "/></g></g></g><g fill="#d4af37" fill-opacity="1"><g transform="translate(115.117389, 292.012423)"><g><path d="M 0 -13.6875 L 12.515625 -13.6875 L 12.515625 -12.125 L 10.25 -12.125 L 10.25 0 L 8.46875 0 L 8.46875 -6.5625 L 4.484375 -6.5625 L 4.484375 -5.375 C 4.484375 -4.957031 4.378906 -4.644531 4.171875 -4.4375 C 3.972656 -4.238281 3.703125 -4.140625 3.359375 -4.140625 C 2.992188 -4.140625 2.617188 -4.289062 2.234375 -4.59375 C 1.847656 -4.90625 1.515625 -5.28125 1.234375 -5.71875 C 0.953125 -6.15625 0.8125 -6.582031 0.8125 -7 C 0.8125 -7.320312 0.910156 -7.585938 1.109375 -7.796875 C 1.304688 -8.015625 1.65625 -8.125 2.15625 -8.125 L 8.46875 -8.125 L 8.46875 -12.125 L 0 -12.125 Z M 0 -13.6875 "/></g></g></g><g fill="#d4af37" fill-opacity="1"><g transform="translate(129.151209, 292.012423)"><g><path d="M 11.203125 -12.125 L 11.203125 0 L 9.421875 0 L 9.421875 -5.5 L 4.546875 -5.5 L 4.546875 -4.6875 C 4.546875 -4.195312 4.441406 -3.847656 4.234375 -3.640625 C 4.023438 -3.429688 3.78125 -3.328125 3.5 -3.328125 C 3.21875 -3.328125 2.921875 -3.414062 2.609375 -3.59375 C 2.304688 -3.78125 2.019531 -4.015625 1.75 -4.296875 C 1.488281 -4.585938 1.273438 -4.894531 1.109375 -5.21875 C 0.941406 -5.539062 0.859375 -5.835938 0.859375 -6.109375 C 0.859375 -6.378906 0.957031 -6.601562 1.15625 -6.78125 C 1.351562 -6.96875 1.703125 -7.0625 2.203125 -7.0625 L 2.765625 -7.0625 L 2.765625 -12.125 L 0 -12.125 L 0 -13.6875 L 13.46875 -13.6875 L 13.46875 -12.125 Z M 9.421875 -12.125 L 4.546875 -12.125 L 4.546875 -7.0625 L 9.421875 -7.0625 Z M 9.421875 -12.125 "/></g></g></g><g fill="#d4af37" fill-opacity="1"><g transform="translate(142.304864, 292.012423)"><g><path d="M 3.734375 -12.125 L 3.734375 0 L 1.953125 0 L 1.953125 -12.125 L 0 -12.125 L 0 -13.6875 L 6 -13.6875 L 6 -12.125 Z M 3.734375 -12.125 "/></g></g></g><g fill="#d4af37" fill-opacity="1"><g transform="translate(148.001847, 292.012423)"><g><path d="M -4.1875 -13.53125 C -4.488281 -14.039062 -4.742188 -14.570312 -4.953125 -15.125 C -5.171875 -15.6875 -5.28125 -16.234375 -5.28125 -16.765625 C -5.28125 -17.742188 -4.953125 -18.476562 -4.296875 -18.96875 C -3.648438 -19.46875 -2.84375 -19.71875 -1.875 -19.71875 C -1.40625 -19.71875 -0.972656 -19.664062 -0.578125 -19.5625 C -0.179688 -19.457031 0.164062 -19.332031 0.46875 -19.1875 L -0.015625 -17.734375 C -0.265625 -17.867188 -0.53125 -17.976562 -0.8125 -18.0625 C -1.09375 -18.144531 -1.394531 -18.1875 -1.71875 -18.1875 C -2.300781 -18.1875 -2.742188 -18.019531 -3.046875 -17.6875 C -3.359375 -17.363281 -3.515625 -16.945312 -3.515625 -16.4375 C -3.515625 -15.945312 -3.414062 -15.472656 -3.21875 -15.015625 C -3.019531 -14.554688 -2.738281 -14.0625 -2.375 -13.53125 Z M -4.1875 -13.53125 "/></g></g></g><g fill="#d4af37" fill-opacity="1"><g transform="translate(149.827843, 292.012423)"><g><path d="M 13.953125 -12.125 L 13.953125 0 L 12.171875 0 L 12.171875 -12.125 L 9.234375 -12.125 L 9.234375 -7.0625 C 9.234375 -6.445312 9.171875 -5.921875 9.046875 -5.484375 C 8.921875 -5.054688 8.726562 -4.679688 8.46875 -4.359375 C 8.164062 -3.992188 7.769531 -3.710938 7.28125 -3.515625 C 6.800781 -3.316406 6.210938 -3.21875 5.515625 -3.21875 C 4.148438 -3.21875 3.148438 -3.648438 2.515625 -4.515625 C 2.265625 -4.847656 2.070312 -5.269531 1.9375 -5.78125 C 1.800781 -6.300781 1.734375 -6.957031 1.734375 -7.75 L 1.734375 -12.125 L 0 -12.125 L 0 -13.6875 L 16.21875 -13.6875 L 16.21875 -12.125 Z M 5.484375 -4.78125 C 6.242188 -4.78125 6.769531 -5.015625 7.0625 -5.484375 C 7.21875 -5.734375 7.320312 -6.015625 7.375 -6.328125 C 7.425781 -6.648438 7.453125 -7.128906 7.453125 -7.765625 L 7.453125 -12.125 L 3.515625 -12.125 L 3.515625 -7.765625 C 3.515625 -7.191406 3.546875 -6.734375 3.609375 -6.390625 C 3.671875 -6.054688 3.773438 -5.765625 3.921875 -5.515625 C 4.066406 -5.265625 4.265625 -5.078125 4.515625 -4.953125 C 4.765625 -4.835938 5.085938 -4.78125 5.484375 -4.78125 Z M 5.484375 -4.78125 "/></g></g></g><g fill="#d4af37" fill-opacity="1"><g transform="translate(165.73101, 292.012423)"><g><path d="M 3.734375 -12.125 L 3.734375 0 L 1.953125 0 L 1.953125 -12.125 L 0 -12.125 L 0 -13.6875 L 6 -13.6875 L 6 -12.125 Z M 3.734375 -12.125 "/></g></g></g><g fill="#d4af37" fill-opacity="1"><g transform="translate(173.253989, 292.012423)"><g><path d="M 13.09375 -13.6875 L 13.09375 -12.125 L 10.796875 -12.125 L 10.796875 0 L 9.015625 0 L 9.015625 -3.9375 C 8.609375 -3.675781 8.117188 -3.4375 7.546875 -3.21875 C 6.972656 -3.007812 6.3125 -2.90625 5.5625 -2.90625 C 4.25 -2.90625 3.179688 -3.347656 2.359375 -4.234375 C 1.546875 -5.117188 1.039062 -6.296875 0.84375 -7.765625 C 1.75 -7.953125 2.421875 -8.21875 2.859375 -8.5625 C 3.296875 -8.914062 3.515625 -9.410156 3.515625 -10.046875 C 3.515625 -10.460938 3.429688 -10.84375 3.265625 -11.1875 C 3.097656 -11.539062 2.910156 -11.851562 2.703125 -12.125 L 0 -12.125 L 0 -13.6875 Z M 2.84375 -6.625 C 3.113281 -5.90625 3.476562 -5.363281 3.9375 -5 C 4.394531 -4.644531 4.984375 -4.46875 5.703125 -4.46875 C 6.429688 -4.46875 7.066406 -4.617188 7.609375 -4.921875 C 8.148438 -5.234375 8.617188 -5.601562 9.015625 -6.03125 L 9.015625 -12.125 L 4.640625 -12.125 C 5.066406 -11.363281 5.28125 -10.585938 5.28125 -9.796875 C 5.28125 -8.203125 4.46875 -7.144531 2.84375 -6.625 Z M 2.84375 -6.625 "/></g></g></g><g fill="#d4af37" fill-opacity="1"><g transform="translate(187.83771, 292.012423)"><g/></g></g><g fill="#d4af37" fill-opacity="1"><g transform="translate(193.425035, 292.012423)"><g><path d="M 0.984375 -1.171875 L 4.703125 -3.359375 C 3.910156 -3.492188 3.28125 -3.796875 2.8125 -4.265625 C 2.4375 -4.660156 2.160156 -5.125 1.984375 -5.65625 C 1.816406 -6.195312 1.734375 -6.9375 1.734375 -7.875 L 1.734375 -12.125 L 0 -12.125 L 0 -13.6875 L 12.828125 -13.6875 L 12.828125 -12.125 L 10.53125 -12.125 L 10.53125 0 L 8.75 0 L 8.75 -4.25 L 2.03125 0.28125 Z M 8.75 -12.125 L 3.515625 -12.125 L 3.515625 -8.125 C 3.515625 -7.519531 3.535156 -7.039062 3.578125 -6.6875 C 3.628906 -6.332031 3.703125 -6.046875 3.796875 -5.828125 C 3.890625 -5.617188 4.019531 -5.4375 4.1875 -5.28125 C 4.519531 -4.945312 5.046875 -4.78125 5.765625 -4.78125 C 6.335938 -4.78125 6.882812 -4.914062 7.40625 -5.1875 C 7.9375 -5.46875 8.382812 -5.789062 8.75 -6.15625 Z M 8.75 -12.125 "/></g></g></g><g fill="#d4af37" fill-opacity="1"><g transform="translate(207.744809, 292.012423)"><g><path d="M 1.953125 -12.125 L 0 -12.125 L 0 -13.6875 L 1.765625 -13.6875 C 1.585938 -14.007812 1.441406 -14.351562 1.328125 -14.71875 C 1.222656 -15.082031 1.171875 -15.484375 1.171875 -15.921875 C 1.171875 -17.066406 1.59375 -17.984375 2.4375 -18.671875 C 3.289062 -19.367188 4.429688 -19.71875 5.859375 -19.71875 C 7.921875 -19.71875 9.75 -19.15625 11.34375 -18.03125 C 12.9375 -16.90625 14.316406 -15.40625 15.484375 -13.53125 L 13.640625 -13.53125 C 11.398438 -16.59375 8.925781 -18.125 6.21875 -18.125 C 5.195312 -18.125 4.394531 -17.90625 3.8125 -17.46875 C 3.238281 -17.039062 2.953125 -16.453125 2.953125 -15.703125 C 2.953125 -15.265625 3.019531 -14.878906 3.15625 -14.546875 C 3.289062 -14.222656 3.445312 -13.9375 3.625 -13.6875 L 6 -13.6875 L 6 -12.125 L 3.734375 -12.125 L 3.734375 0 L 1.953125 0 Z M 1.953125 -12.125 "/></g></g></g><g fill="#d4af37" fill-opacity="1"><g transform="translate(213.441792, 292.012423)"><g><path d="M 10.578125 -12.125 L 10.578125 0 L 8.796875 0 L 8.796875 -7.21875 L 6.40625 -7.21875 C 5.507812 -7.21875 4.835938 -7.171875 4.390625 -7.078125 C 3.941406 -6.992188 3.578125 -6.828125 3.296875 -6.578125 C 2.941406 -6.296875 2.765625 -5.84375 2.765625 -5.21875 C 2.765625 -4.5 3.035156 -3.804688 3.578125 -3.140625 C 4.128906 -2.472656 4.925781 -1.71875 5.96875 -0.875 L 4.78125 0.265625 C 4.082031 -0.316406 3.445312 -0.898438 2.875 -1.484375 C 2.3125 -2.078125 1.851562 -2.6875 1.5 -3.3125 C 1.15625 -3.945312 0.984375 -4.617188 0.984375 -5.328125 C 0.984375 -5.828125 1.082031 -6.285156 1.28125 -6.703125 C 1.476562 -7.117188 1.734375 -7.457031 2.046875 -7.71875 C 2.472656 -8.082031 2.984375 -8.347656 3.578125 -8.515625 C 4.179688 -8.691406 4.984375 -8.78125 5.984375 -8.78125 L 8.796875 -8.78125 L 8.796875 -12.125 L 0 -12.125 L 0 -13.6875 L 12.84375 -13.6875 L 12.84375 -12.125 Z M 10.578125 -12.125 "/></g></g></g><g fill="#d4af37" fill-opacity="1"><g transform="translate(227.805557, 292.012423)"><g><path d="M 12.875 -12.125 L 10.609375 -12.125 L 10.609375 0 L 8.828125 0 L 8.828125 -3.625 C 8.429688 -3.363281 7.945312 -3.125 7.375 -2.90625 C 6.8125 -2.695312 6.117188 -2.59375 5.296875 -2.59375 C 4.460938 -2.59375 3.722656 -2.742188 3.078125 -3.046875 C 2.429688 -3.359375 1.925781 -3.789062 1.5625 -4.34375 C 1.195312 -4.894531 1.015625 -5.546875 1.015625 -6.296875 C 1.015625 -7.554688 1.457031 -8.519531 2.34375 -9.1875 C 3.226562 -9.863281 4.390625 -10.203125 5.828125 -10.203125 C 6.015625 -10.203125 6.257812 -10.191406 6.5625 -10.171875 C 6.863281 -10.148438 7.15625 -10.117188 7.4375 -10.078125 C 7.726562 -10.046875 7.957031 -10.015625 8.125 -9.984375 L 7.984375 -8.46875 C 7.691406 -8.53125 7.363281 -8.582031 7 -8.625 C 6.632812 -8.664062 6.265625 -8.6875 5.890625 -8.6875 C 5.597656 -8.6875 5.320312 -8.664062 5.0625 -8.625 L 8.03125 -4.921875 C 8.3125 -5.128906 8.578125 -5.363281 8.828125 -5.625 L 8.828125 -12.125 L 0 -12.125 L 0 -13.6875 L 12.875 -13.6875 Z M 2.796875 -6.3125 C 2.796875 -5.53125 3.039062 -4.957031 3.53125 -4.59375 C 4.019531 -4.226562 4.617188 -4.046875 5.328125 -4.046875 C 5.585938 -4.046875 5.835938 -4.066406 6.078125 -4.109375 C 6.328125 -4.160156 6.5625 -4.222656 6.78125 -4.296875 L 3.703125 -8.140625 C 3.097656 -7.734375 2.796875 -7.125 2.796875 -6.3125 Z M 2.796875 -6.3125 "/></g></g></g><g fill="#d4af37" fill-opacity="1"><g transform="translate(242.191318, 292.012423)"><g><path d="M 16.65625 3.03125 L 15.140625 3.65625 L 13.875 0.171875 C 13.425781 0.773438 12.894531 1.335938 12.28125 1.859375 C 11.664062 2.378906 10.96875 2.800781 10.1875 3.125 C 9.40625 3.445312 8.539062 3.609375 7.59375 3.609375 C 6.269531 3.609375 5.253906 3.328125 4.546875 2.765625 C 3.847656 2.210938 3.5 1.507812 3.5 0.65625 C 3.5 0.40625 3.535156 0.15625 3.609375 -0.09375 C 3.691406 -0.351562 3.816406 -0.601562 3.984375 -0.84375 C 3.078125 -1.070312 2.332031 -1.441406 1.75 -1.953125 C 1.164062 -2.472656 0.875 -3.175781 0.875 -4.0625 C 0.875 -4.90625 1.15625 -5.597656 1.71875 -6.140625 C 2.289062 -6.691406 3.015625 -6.96875 3.890625 -6.96875 C 4.628906 -6.96875 5.242188 -6.773438 5.734375 -6.390625 C 6.222656 -6.003906 6.46875 -5.492188 6.46875 -4.859375 C 6.46875 -4.578125 6.398438 -4.269531 6.265625 -3.9375 C 6.140625 -3.601562 5.9375 -3.300781 5.65625 -3.03125 L 4.359375 -3.875 C 4.648438 -4.125 4.796875 -4.410156 4.796875 -4.734375 C 4.796875 -4.921875 4.726562 -5.109375 4.59375 -5.296875 C 4.46875 -5.492188 4.21875 -5.59375 3.84375 -5.59375 C 3.476562 -5.59375 3.15625 -5.4375 2.875 -5.125 C 2.601562 -4.8125 2.46875 -4.429688 2.46875 -3.984375 C 2.46875 -3.515625 2.601562 -3.144531 2.875 -2.875 C 3.15625 -2.613281 3.507812 -2.414062 3.9375 -2.28125 C 4.375 -2.15625 4.828125 -2.078125 5.296875 -2.046875 C 5.753906 -2.234375 6.273438 -2.328125 6.859375 -2.328125 C 7.003906 -2.328125 7.15625 -2.320312 7.3125 -2.3125 C 7.476562 -2.3125 7.613281 -2.300781 7.71875 -2.28125 L 7.59375 -0.796875 C 7.519531 -0.804688 7.4375 -0.8125 7.34375 -0.8125 C 7.257812 -0.8125 7.179688 -0.8125 7.109375 -0.8125 C 6.503906 -0.8125 6.039062 -0.691406 5.71875 -0.453125 C 5.394531 -0.210938 5.234375 0.117188 5.234375 0.546875 C 5.234375 1.054688 5.441406 1.441406 5.859375 1.703125 C 6.273438 1.960938 6.800781 2.09375 7.4375 2.09375 C 8.625 2.09375 9.6875 1.75 10.625 1.0625 C 11.5625 0.382812 12.410156 -0.492188 13.171875 -1.578125 C 13.023438 -1.566406 12.882812 -1.550781 12.75 -1.53125 C 12.625 -1.519531 12.519531 -1.515625 12.4375 -1.515625 C 11.8125 -1.515625 11.179688 -1.59375 10.546875 -1.75 C 9.910156 -1.90625 9.320312 -2.15625 8.78125 -2.5 C 8.25 -2.84375 7.816406 -3.300781 7.484375 -3.875 C 7.160156 -4.445312 7 -5.148438 7 -5.984375 C 7 -6.628906 7.109375 -7.179688 7.328125 -7.640625 C 7.546875 -8.109375 7.835938 -8.503906 8.203125 -8.828125 C 8.691406 -9.242188 9.285156 -9.546875 9.984375 -9.734375 C 10.691406 -9.929688 11.484375 -10.03125 12.359375 -10.03125 L 12.453125 -10.03125 L 12.453125 -12.125 L 0 -12.125 L 0 -13.6875 L 17.734375 -13.6875 L 17.734375 -12.125 L 14.234375 -12.125 L 14.234375 -8.46875 L 13.171875 -8.46875 C 12.304688 -8.46875 11.613281 -8.414062 11.09375 -8.3125 C 10.570312 -8.207031 10.140625 -8.039062 9.796875 -7.8125 C 9.453125 -7.59375 9.191406 -7.3125 9.015625 -6.96875 C 8.835938 -6.632812 8.75 -6.234375 8.75 -5.765625 C 8.75 -4.984375 9.039062 -4.335938 9.625 -3.828125 C 10.21875 -3.328125 11.128906 -3.078125 12.359375 -3.078125 C 12.410156 -3.078125 12.472656 -3.078125 12.546875 -3.078125 C 12.617188 -3.078125 12.703125 -3.085938 12.796875 -3.109375 C 12.773438 -3.234375 12.753906 -3.363281 12.734375 -3.5 C 12.722656 -3.644531 12.71875 -3.769531 12.71875 -3.875 C 12.71875 -4.375 12.867188 -4.734375 13.171875 -4.953125 C 13.472656 -5.171875 13.8125 -5.28125 14.1875 -5.28125 C 14.800781 -5.28125 15.273438 -5.097656 15.609375 -4.734375 C 15.941406 -4.378906 16.109375 -3.988281 16.109375 -3.5625 C 16.109375 -3.09375 15.984375 -2.722656 15.734375 -2.453125 C 15.492188 -2.179688 15.175781 -1.972656 14.78125 -1.828125 Z M 16.65625 3.03125 "/></g></g></g><g fill="#d4af37" fill-opacity="1"><g transform="translate(259.590215, 292.012423)"><g><path d="M 1.71875 -9.5625 C 1.71875 -9.945312 1.847656 -10.28125 2.109375 -10.5625 C 2.378906 -10.84375 2.695312 -10.984375 3.0625 -10.984375 C 3.425781 -10.984375 3.738281 -10.84375 4 -10.5625 C 4.269531 -10.28125 4.40625 -9.945312 4.40625 -9.5625 C 4.40625 -9.1875 4.269531 -8.859375 4 -8.578125 C 3.738281 -8.296875 3.425781 -8.15625 3.0625 -8.15625 C 2.695312 -8.15625 2.378906 -8.296875 2.109375 -8.578125 C 1.847656 -8.859375 1.71875 -9.1875 1.71875 -9.5625 Z M 1.71875 -2.59375 C 1.71875 -2.976562 1.847656 -3.304688 2.109375 -3.578125 C 2.378906 -3.859375 2.695312 -4 3.0625 -4 C 3.425781 -4 3.738281 -3.859375 4 -3.578125 C 4.269531 -3.304688 4.40625 -2.976562 4.40625 -2.59375 C 4.40625 -2.21875 4.269531 -1.890625 4 -1.609375 C 3.738281 -1.328125 3.425781 -1.1875 3.0625 -1.1875 C 2.695312 -1.1875 2.378906 -1.328125 2.109375 -1.609375 C 1.847656 -1.890625 1.71875 -2.21875 1.71875 -2.59375 Z M 1.71875 -2.59375 "/></g></g></g><g clip-path="url(#49b167e894)"><path fill="#c46210" d="M 131.492188 95.015625 C 131.492188 95.207031 131.457031 95.390625 131.382812 95.570312 C 131.308594 95.746094 131.207031 95.902344 131.070312 96.039062 C 130.933594 96.175781 130.777344 96.28125 130.601562 96.351562 C 130.421875 96.425781 130.238281 96.464844 130.046875 96.464844 C 129.855469 96.464844 129.667969 96.425781 129.492188 96.351562 C 129.316406 96.28125 129.15625 96.175781 129.023438 96.039062 C 128.886719 95.902344 128.78125 95.746094 128.707031 95.570312 C 128.636719 95.390625 128.597656 95.207031 128.597656 95.015625 C 128.597656 94.824219 128.636719 94.640625 128.707031 94.460938 C 128.78125 94.285156 128.886719 94.128906 129.023438 93.992188 C 129.15625 93.855469 129.316406 93.75 129.492188 93.679688 C 129.667969 93.605469 129.855469 93.566406 130.046875 93.566406 C 130.238281 93.566406 130.421875 93.605469 130.601562 93.679688 C 130.777344 93.75 130.933594 93.855469 131.070312 93.992188 C 131.207031 94.128906 131.308594 94.285156 131.382812 94.460938 C 131.457031 94.640625 131.492188 94.824219 131.492188 95.015625 Z M 131.492188 95.015625 " fill-opacity="1" fill-rule="nonzero"/></g><g clip-path="url(#c37543fc17)"><path fill="#c46210" d="M 146.730469 103.65625 C 146.730469 103.847656 146.691406 104.035156 146.617188 104.210938 C 146.546875 104.386719 146.441406 104.542969 146.304688 104.679688 C 146.167969 104.816406 146.011719 104.921875 145.835938 104.992188 C 145.65625 105.066406 145.472656 105.105469 145.28125 105.105469 C 145.089844 105.105469 144.90625 105.066406 144.726562 104.992188 C 144.550781 104.921875 144.394531 104.816406 144.257812 104.679688 C 144.121094 104.542969 144.015625 104.386719 143.945312 104.210938 C 143.871094 104.035156 143.832031 103.847656 143.832031 103.65625 C 143.832031 103.464844 143.871094 103.28125 143.945312 103.101562 C 144.015625 102.925781 144.121094 102.769531 144.257812 102.632812 C 144.394531 102.496094 144.550781 102.394531 144.726562 102.320312 C 144.90625 102.246094 145.089844 102.210938 145.28125 102.210938 C 145.472656 102.210938 145.65625 102.246094 145.835938 102.320312 C 146.011719 102.394531 146.167969 102.496094 146.304688 102.632812 C 146.441406 102.769531 146.546875 102.925781 146.617188 103.101562 C 146.691406 103.28125 146.730469 103.464844 146.730469 103.65625 Z M 146.730469 103.65625 " fill-opacity="1" fill-rule="nonzero"/></g><g clip-path="url(#7e9c7fba8d)"><path fill="#c46210" d="M 116.074219 103.65625 C 116.074219 103.847656 116.039062 104.035156 115.964844 104.210938 C 115.890625 104.386719 115.785156 104.542969 115.652344 104.679688 C 115.515625 104.816406 115.359375 104.921875 115.179688 104.992188 C 115.003906 105.066406 114.820312 105.105469 114.628906 105.105469 C 114.433594 105.105469 114.25 105.066406 114.074219 104.992188 C 113.894531 104.921875 113.738281 104.816406 113.605469 104.679688 C 113.46875 104.542969 113.363281 104.386719 113.289062 104.210938 C 113.214844 104.035156 113.179688 103.847656 113.179688 103.65625 C 113.179688 103.464844 113.214844 103.28125 113.289062 103.101562 C 113.363281 102.925781 113.46875 102.769531 113.605469 102.632812 C 113.738281 102.496094 113.894531 102.394531 114.074219 102.320312 C 114.25 102.246094 114.433594 102.210938 114.628906 102.210938 C 114.820312 102.210938 115.003906 102.246094 115.179688 102.320312 C 115.359375 102.394531 115.515625 102.496094 115.652344 102.632812 C 115.785156 102.769531 115.890625 102.925781 115.964844 103.101562 C 116.039062 103.28125 116.074219 103.464844 116.074219 103.65625 Z M 116.074219 103.65625 " fill-opacity="1" fill-rule="nonzero"/></g><path fill="#c46210" d="M 137.824219 105.796875 C 137.824219 105.945312 137.792969 106.09375 137.738281 106.230469 C 137.679688 106.371094 137.597656 106.492188 137.492188 106.601562 C 137.382812 106.707031 137.261719 106.789062 137.121094 106.847656 C 136.980469 106.90625 136.835938 106.933594 136.6875 106.933594 C 136.535156 106.933594 136.390625 106.90625 136.25 106.847656 C 136.109375 106.789062 135.988281 106.707031 135.882812 106.601562 C 135.773438 106.492188 135.691406 106.371094 135.632812 106.230469 C 135.578125 106.09375 135.546875 105.945312 135.546875 105.796875 C 135.546875 105.644531 135.578125 105.5 135.632812 105.359375 C 135.691406 105.222656 135.773438 105.097656 135.882812 104.992188 C 135.988281 104.882812 136.109375 104.800781 136.25 104.746094 C 136.390625 104.6875 136.535156 104.65625 136.6875 104.65625 C 136.835938 104.65625 136.980469 104.6875 137.121094 104.746094 C 137.261719 104.800781 137.382812 104.882812 137.492188 104.992188 C 137.597656 105.097656 137.679688 105.222656 137.738281 105.359375 C 137.792969 105.5 137.824219 105.644531 137.824219 105.796875 Z M 137.824219 105.796875 " fill-opacity="1" fill-rule="nonzero"/><path fill="#c46210" d="M 124.339844 105.59375 C 124.339844 105.742188 124.308594 105.890625 124.25 106.027344 C 124.195312 106.167969 124.113281 106.289062 124.003906 106.398438 C 123.898438 106.503906 123.773438 106.585938 123.636719 106.644531 C 123.496094 106.703125 123.351562 106.730469 123.199219 106.730469 C 123.050781 106.730469 122.902344 106.703125 122.765625 106.644531 C 122.625 106.585938 122.503906 106.503906 122.394531 106.398438 C 122.289062 106.289062 122.207031 106.167969 122.148438 106.027344 C 122.089844 105.890625 122.0625 105.742188 122.0625 105.59375 C 122.0625 105.441406 122.089844 105.296875 122.148438 105.15625 C 122.207031 105.019531 122.289062 104.894531 122.394531 104.789062 C 122.503906 104.679688 122.625 104.597656 122.765625 104.542969 C 122.902344 104.484375 123.050781 104.453125 123.199219 104.453125 C 123.351562 104.453125 123.496094 104.484375 123.636719 104.542969 C 123.773438 104.597656 123.898438 104.679688 124.003906 104.789062 C 124.113281 104.894531 124.195312 105.019531 124.25 105.15625 C 124.308594 105.296875 124.339844 105.441406 124.339844 105.59375 Z M 124.339844 105.59375 " fill-opacity="1" fill-rule="nonzero"/><g clip-path="url(#6ffc0a2738)"><path fill="#c46210" d="M 144.582031 106.078125 L 144.347656 106.390625 L 139.535156 112.855469 C 138.941406 113.652344 138.113281 114.207031 137.195312 114.46875 L 136.6875 107.601562 C 136.671875 107.414062 136.449219 107.371094 136.378906 107.542969 L 133.796875 114.046875 C 132.976562 113.5 132.398438 112.628906 132.238281 111.613281 L 130.324219 99.460938 L 130.332031 99.414062 L 129.96875 97.199219 L 127.703125 111.613281 C 127.542969 112.628906 126.960938 113.5 126.140625 114.046875 L 123.558594 107.542969 C 123.492188 107.371094 123.265625 107.414062 123.253906 107.601562 L 122.738281 114.492188 C 121.832031 114.226562 121.011719 113.671875 120.425781 112.882812 L 115.613281 106.421875 L 115.378906 106.105469 C 115.242188 105.925781 114.957031 106.066406 115.019531 106.28125 L 118.4375 118.433594 L 118.773438 119.625 L 118.785156 119.667969 C 118.796875 119.703125 118.808594 119.734375 118.820312 119.765625 C 118.824219 119.777344 118.828125 119.785156 118.832031 119.796875 C 118.839844 119.816406 118.851562 119.839844 118.859375 119.859375 C 118.867188 119.871094 118.871094 119.882812 118.878906 119.894531 C 118.886719 119.914062 118.898438 119.929688 118.910156 119.949219 C 118.917969 119.960938 118.925781 119.972656 118.929688 119.980469 C 118.941406 120 118.953125 120.015625 118.96875 120.03125 C 118.976562 120.042969 118.984375 120.050781 118.992188 120.0625 C 119.003906 120.078125 119.015625 120.09375 119.03125 120.109375 C 119.039062 120.117188 119.046875 120.128906 119.058594 120.136719 C 119.070312 120.152344 119.085938 120.167969 119.101562 120.179688 C 119.113281 120.1875 119.121094 120.195312 119.128906 120.203125 C 119.148438 120.21875 119.164062 120.234375 119.183594 120.246094 C 119.191406 120.253906 119.199219 120.257812 119.207031 120.265625 C 119.234375 120.285156 119.257812 120.300781 119.289062 120.316406 C 119.296875 120.320312 119.304688 120.324219 119.3125 120.328125 C 119.332031 120.339844 119.351562 120.351562 119.375 120.363281 C 119.386719 120.367188 119.398438 120.371094 119.410156 120.378906 C 119.429688 120.386719 119.445312 120.390625 119.464844 120.398438 C 119.476562 120.402344 119.492188 120.410156 119.507812 120.414062 C 119.523438 120.417969 119.539062 120.421875 119.554688 120.429688 C 119.570312 120.433594 119.585938 120.4375 119.601562 120.4375 C 119.617188 120.441406 119.632812 120.445312 119.652344 120.449219 C 119.667969 120.453125 119.683594 120.453125 119.699219 120.457031 C 119.714844 120.457031 119.730469 120.460938 119.746094 120.460938 C 119.765625 120.460938 119.78125 120.464844 119.800781 120.464844 C 119.8125 120.464844 119.828125 120.445312 119.84375 120.445312 C 119.863281 120.445312 119.882812 120.421875 119.902344 120.421875 C 119.902344 120.421875 119.902344 120.421875 119.90625 120.421875 C 119.914062 120.421875 119.925781 120.441406 119.9375 120.4375 C 119.960938 120.4375 119.980469 120.445312 120 120.441406 C 120.035156 120.4375 120.070312 120.4375 120.105469 120.429688 C 122.078125 119.933594 126.519531 118.929688 129.96875 118.929688 C 133.417969 118.929688 137.859375 119.9375 139.835938 120.433594 C 139.867188 120.441406 139.902344 120.449219 139.9375 120.453125 C 139.957031 120.457031 139.980469 120.4375 140 120.4375 C 140.011719 120.441406 140.023438 120.421875 140.035156 120.421875 C 140.054688 120.421875 140.074219 120.445312 140.097656 120.445312 C 140.109375 120.445312 140.125 120.453125 140.136719 120.453125 C 140.15625 120.453125 140.171875 120.457031 140.191406 120.457031 C 140.207031 120.453125 140.222656 120.457031 140.238281 120.453125 C 140.253906 120.453125 140.269531 120.449219 140.289062 120.449219 C 140.304688 120.445312 140.320312 120.441406 140.335938 120.4375 C 140.351562 120.433594 140.367188 120.433594 140.382812 120.425781 C 140.398438 120.421875 140.414062 120.417969 140.433594 120.414062 C 140.445312 120.410156 140.460938 120.402344 140.476562 120.398438 C 140.492188 120.390625 140.507812 120.386719 140.527344 120.378906 C 140.539062 120.371094 140.550781 120.367188 140.5625 120.363281 C 140.585938 120.351562 140.605469 120.339844 140.625 120.328125 C 140.632812 120.324219 140.640625 120.320312 140.652344 120.316406 C 140.679688 120.300781 140.707031 120.28125 140.730469 120.265625 C 140.738281 120.257812 140.746094 120.253906 140.753906 120.246094 C 140.773438 120.234375 140.792969 120.21875 140.808594 120.203125 C 140.816406 120.195312 140.828125 120.1875 140.835938 120.179688 C 140.851562 120.167969 140.867188 120.152344 140.878906 120.136719 C 140.890625 120.128906 140.898438 120.117188 140.90625 120.109375 C 140.921875 120.09375 140.933594 120.078125 140.945312 120.0625 C 140.957031 120.050781 140.964844 120.042969 140.972656 120.03125 C 140.984375 120.015625 140.996094 120 141.007812 119.980469 C 141.015625 119.972656 141.019531 119.960938 141.027344 119.949219 C 141.039062 119.929688 141.050781 119.914062 141.058594 119.894531 C 141.066406 119.882812 141.070312 119.871094 141.078125 119.859375 C 141.085938 119.839844 141.097656 119.816406 141.105469 119.796875 C 141.109375 119.785156 141.113281 119.777344 141.117188 119.765625 C 141.132812 119.734375 141.144531 119.703125 141.152344 119.667969 L 141.164062 119.625 L 141.5 118.433594 L 144.863281 106.484375 L 144.863281 106.480469 L 144.882812 106.453125 L 144.941406 106.253906 C 145 106.035156 144.714844 105.894531 144.582031 106.078125 Z M 144.582031 106.078125 " fill-opacity="1" fill-rule="nonzero"/></g></svg>